<svg width="17" height="19" viewBox="0 0 17 19" fill="none" xmlns="http://www.w3.org/2000/svg">
<path d="M15.5927 3.31817H12.6064V2.32272C12.6064 1.7067 12.3617 1.1159 11.9261 0.680309C11.4905 0.244714 10.8997 0 10.2836 0H6.30184C5.68582 0 5.09502 0.244714 4.65943 0.680309C4.22383 1.1159 3.97912 1.7067 3.97912 2.32272V3.31817H0.992766C0.728756 3.31817 0.475559 3.42305 0.288875 3.60973C0.102192 3.79641 -0.00268555 4.04961 -0.00268555 4.31362C-0.00268555 4.57763 0.102192 4.83083 0.288875 5.01751C0.475559 5.2042 0.728756 5.30907 0.992766 5.30907H1.32458V16.5909C1.32458 17.0309 1.49938 17.4529 1.81052 17.764C2.12166 18.0751 2.54365 18.2499 2.98367 18.2499H13.6018C14.0418 18.2499 14.4638 18.0751 14.775 17.764C15.0861 17.4529 15.2609 17.0309 15.2609 16.5909V5.30907H15.5927C15.8567 5.30907 16.1099 5.2042 16.2966 5.01751C16.4833 4.83083 16.5882 4.57763 16.5882 4.31362C16.5882 4.04961 16.4833 3.79641 16.2966 3.60973C16.1099 3.42305 15.8567 3.31817 15.5927 3.31817ZM5.97002 2.32272C5.97002 2.23472 6.00498 2.15032 6.06721 2.08809C6.12944 2.02586 6.21384 1.9909 6.30184 1.9909H10.2836C10.3716 1.9909 10.456 2.02586 10.5183 2.08809C10.5805 2.15032 10.6155 2.23472 10.6155 2.32272V3.31817H5.97002V2.32272ZM13.27 16.259H3.31549V5.30907H13.27V16.259ZM7.29729 7.96361V13.2727C7.29729 13.5367 7.19241 13.7899 7.00573 13.9766C6.81905 14.1633 6.56585 14.2681 6.30184 14.2681C6.03783 14.2681 5.78463 14.1633 5.59795 13.9766C5.41127 13.7899 5.30639 13.5367 5.30639 13.2727V7.96361C5.30639 7.6996 5.41127 7.4464 5.59795 7.25972C5.78463 7.07304 6.03783 6.96816 6.30184 6.96816C6.56585 6.96816 6.81905 7.07304 7.00573 7.25972C7.19241 7.4464 7.29729 7.6996 7.29729 7.96361ZM11.2791 7.96361V13.2727C11.2791 13.5367 11.1742 13.7899 10.9875 13.9766C10.8009 14.1633 10.5477 14.2681 10.2836 14.2681C10.0196 14.2681 9.76644 14.1633 9.57975 13.9766C9.39307 13.7899 9.28819 13.5367 9.28819 13.2727V7.96361C9.28819 7.6996 9.39307 7.4464 9.57975 7.25972C9.76644 7.07304 10.0196 6.96816 10.2836 6.96816C10.5477 6.96816 10.8009 7.07304 10.9875 7.25972C11.1742 7.4464 11.2791 7.6996 11.2791 7.96361Z" fill="#222222"/>
</svg>
